<?xml version="1.0" encoding="utf-8"?>
<!-- Generator: Adobe Illustrator 19.1.0, SVG Export Plug-In . SVG Version: 6.00 Build 0)  -->
<svg version="1.1" id="Layer_1" xmlns:sketch="http://www.bohemiancoding.com/sketch/ns"
	 xmlns="http://www.w3.org/2000/svg" xmlns:xlink="http://www.w3.org/1999/xlink" x="0px" y="0px" viewBox="-188 344.5 131 83.4"
	 style="enable-background:new -188 344.5 131 83.4;" xml:space="preserve">
<style type="text/css">
	.st0{fill:#DC4E41;}
</style>
<g id="button" transform="translate(4.000000, 4.000000)" sketch:type="MSLayerGroup">
	<path id="Shape" sketch:type="MSShapeGroup" class="st0" d="M-150.3,376.3v14.3h23.6c-1,6.1-7.1,18-23.6,18
		c-14.2,0-25.8-11.8-25.8-26.3c0-14.5,11.6-26.3,25.8-26.3c8.1,0,13.5,3.5,16.6,6.4l11.3-10.9c-7.3-6.8-16.7-10.9-27.9-10.9
		c-23,0-41.7,18.6-41.7,41.7s18.6,41.7,41.7,41.7c24.1,0,40-16.9,40-40.7c0-2.7-0.3-4.8-0.7-6.9H-150.3L-150.3,376.3z"/>
	<path id="Shape_1_" sketch:type="MSShapeGroup" class="st0" d="M-61,376.3h-11.9v-11.9h-11.9v11.9h-11.9v11.9h11.9v11.9h11.9v-11.9
		H-61"/>
</g>
</svg>
