<?xml version="1.0" encoding="utf-8"?>
<!-- Generator: Adobe Illustrator 19.1.0, SVG Export Plug-In . SVG Version: 6.00 Build 0)  -->
<svg version="1.1" id="svg2" xmlns:svg="http://www.w3.org/2000/svg"
	 xmlns="http://www.w3.org/2000/svg" xmlns:xlink="http://www.w3.org/1999/xlink" x="0px" y="0px" viewBox="-206.2 414 23 31.8"
	 style="enable-background:new -206.2 414 23 31.8;" xml:space="preserve">
<style type="text/css">
	.st0{fill:#FFFFFF;}
	.st1{fill:#FF4500;}
</style>
<path id="path26" class="st0" d="M-191.1,432.4c1.9,0,3.5,1.9,3.5,4.2c0,2.3-1.6,4.2-3.5,4.2s-3.5-1.9-3.5-4.2
	C-194.6,434.2-193,432.4-191.1,432.4"/>
<path d="M-191.1,441.4c-2.2,0-4.1-2.1-4.1-4.8s1.8-4.8,4.1-4.8c2.2,0,4.1,2.1,4.1,4.8S-188.9,441.4-191.1,441.4z M-191.1,432.9
	c-1.6,0-3,1.7-3,3.7s1.3,3.7,3,3.7c1.6,0,3-1.7,3-3.7S-189.5,432.9-191.1,432.9z"/>
<path id="path34" class="st0" d="M-196.6,445.2c0.1-0.2,0.1-0.3,0.1-0.5c0-1.1-1.1-2-2.4-2c-1.3,0-2.4,0.9-2.4,2
	c0,0.2,0,0.3,0.1,0.5H-196.6z"/>
<path d="M-196.6,445.8h-4.7c-0.2,0-0.5-0.2-0.5-0.4c-0.1-0.2-0.1-0.5-0.1-0.7c0-1.4,1.3-2.5,3-2.5c1.6,0,3,1.1,3,2.5
	c0,0.2,0,0.4-0.1,0.7C-196.2,445.6-196.4,445.8-196.6,445.8z M-200.8,444.7h3.7c0-0.7-0.9-1.3-1.9-1.3
	C-200,443.3-200.8,443.9-200.8,444.7z"/>
<path id="path42" class="st0" d="M-188.2,445.2c0.1-0.2,0.1-0.3,0.1-0.5c0-1.1-1.1-2-2.4-2c-1.3,0-2.4,0.9-2.4,2
	c0,0.2,0,0.3,0.1,0.5H-188.2z"/>
<path d="M-188.2,445.8h-4.7c-0.2,0-0.5-0.2-0.5-0.4c-0.1-0.2-0.1-0.4-0.1-0.7c0-1.4,1.3-2.5,3-2.5c1.6,0,3,1.1,3,2.5
	c0,0.2,0,0.4-0.1,0.7C-187.7,445.6-187.9,445.8-188.2,445.8z M-192.4,444.7h3.7c0-0.7-0.9-1.3-1.9-1.3
	C-191.5,443.3-192.3,443.9-192.4,444.7z"/>
<path id="path50" class="st0" d="M-201.3,423.4c0,1.2-1,2.1-2.1,2.1c-1.2,0-2.1-1-2.1-2.1s1-2.1,2.1-2.1
	C-202.3,421.3-201.3,422.2-201.3,423.4"/>
<path d="M-203.5,426.1c-1.5,0-2.7-1.2-2.7-2.7c0-1.5,1.2-2.7,2.7-2.7c1.5,0,2.7,1.2,2.7,2.7C-200.8,424.9-202,426.1-203.5,426.1z
	 M-203.5,421.8c-0.9,0-1.6,0.7-1.6,1.6c0,0.9,0.7,1.6,1.6,1.6c0.9,0,1.6-0.7,1.6-1.6C-201.9,422.5-202.6,421.8-203.5,421.8z"/>
<path id="path58" class="st0" d="M-183.8,423.4c0,1.2-1,2.1-2.1,2.1c-1.2,0-2.1-1-2.1-2.1s1-2.1,2.1-2.1
	C-184.7,421.3-183.8,422.2-183.8,423.4"/>
<path d="M-185.9,426.1c-1.5,0-2.7-1.2-2.7-2.7c0-1.5,1.2-2.7,2.7-2.7c1.5,0,2.7,1.2,2.7,2.7C-183.2,424.9-184.4,426.1-185.9,426.1z
	 M-185.9,421.8c-0.9,0-1.6,0.7-1.6,1.6c0,0.9,0.7,1.6,1.6,1.6c0.9,0,1.6-0.7,1.6-1.6C-184.3,422.5-185,421.8-185.9,421.8z"/>
<path d="M-194.6,420.4c-0.1,0-0.1,0-0.2,0c-0.3-0.1-0.5-0.4-0.4-0.7l1.6-5c0.1-0.3,0.4-0.4,0.7-0.4l4.3,1c0.3,0.1,0.5,0.4,0.4,0.7
	c-0.1,0.3-0.4,0.5-0.7,0.4l-3.8-0.9l-1.4,4.5C-194.2,420.2-194.4,420.4-194.6,420.4z"/>
<path id="path70" class="st0" d="M-198.3,432.4c1.9,0,3.5,1.9,3.5,4.2c0,2.3-1.6,4.2-3.5,4.2c-1.9,0-3.5-1.9-3.5-4.2
	C-201.8,434.2-200.3,432.4-198.3,432.4"/>
<path d="M-198.3,441.4c-2.2,0-4.1-2.1-4.1-4.8s1.8-4.8,4.1-4.8c2.2,0,4.1,2.1,4.1,4.8S-196.1,441.4-198.3,441.4z M-198.3,432.9
	c-1.6,0-3,1.7-3,3.7s1.3,3.7,3,3.7c1.6,0,3-1.7,3-3.7S-196.7,432.9-198.3,432.9z"/>
<path id="path78" class="st0" d="M-185.3,416.2c0,0.9-0.8,1.7-1.7,1.7c-0.9,0-1.7-0.8-1.7-1.7c0-0.9,0.8-1.7,1.7-1.7
	C-186.1,414.5-185.3,415.3-185.3,416.2"/>
<path d="M-187,418.5c-1.2,0-2.2-1-2.2-2.2s1-2.2,2.2-2.2c1.2,0,2.2,1,2.2,2.2S-185.7,418.5-187,418.5z M-187,415.1
	c-0.6,0-1.1,0.5-1.1,1.1s0.5,1.1,1.1,1.1c0.6,0,1.1-0.5,1.1-1.1S-186.4,415.1-187,415.1z"/>
<path id="path86" class="st0" d="M-195.9,445.2h2.4c2.1-1.1,3.7-5,3.7-9.7c0-5.6-2.2-10.1-4.9-10.1c-2.7,0-4.9,4.5-4.9,10.1
	C-199.6,440.2-198,444.1-195.9,445.2"/>
<path d="M-193.4,445.8h-2.6l-0.1-0.1c-2.3-1.2-4-5.4-4-10.2c0-5.9,2.4-10.6,5.4-10.6s5.4,4.7,5.4,10.6c0,4.8-1.6,9-4,10.2
	L-193.4,445.8z M-195.8,444.7h2.1c1.9-1.1,3.3-4.9,3.3-9.2c0-5.2-2-9.5-4.3-9.5s-4.3,4.4-4.3,9.5
	C-199.1,439.7-197.7,443.6-195.8,444.7z"/>
<path id="path94" class="st0" d="M-185,426.4c0,3.5-4.4,6.3-9.7,6.3c-5.4,0-9.7-2.8-9.7-6.3c0-3.5,4.4-6.3,9.7-6.3
	C-189.4,420-185,422.9-185,426.4"/>
<path d="M-194.7,433.3c-5.7,0-10.3-3.1-10.3-6.9s4.6-6.9,10.3-6.9c5.7,0,10.3,3.1,10.3,6.9S-189.1,433.3-194.7,433.3z M-194.7,420.6
	c-5.1,0-9.2,2.6-9.2,5.8s4.1,5.8,9.2,5.8c5.1,0,9.2-2.6,9.2-5.8S-189.7,420.6-194.7,420.6z"/>
<path d="M-192.1,445.8h-5.2c-0.3,0-0.5-0.2-0.5-0.5s0.2-0.5,0.5-0.5h5.2c0.3,0,0.5,0.2,0.5,0.5S-191.8,445.8-192.1,445.8z"/>
<path id="path158" class="st1" d="M-197,425.1c0,0.6-0.5,1.1-1.1,1.1c-0.6,0-1.1-0.5-1.1-1.1c0-0.6,0.5-1.1,1.1-1.1
	C-197.5,424-197,424.5-197,425.1"/>
<path class="st1" d="M-198.1,426.8c-0.9,0-1.7-0.8-1.7-1.7c0-0.9,0.8-1.7,1.7-1.7s1.7,0.8,1.7,1.7
	C-196.4,426-197.2,426.8-198.1,426.8z M-198.1,424.5c-0.3,0-0.6,0.3-0.6,0.6c0,0.3,0.3,0.6,0.6,0.6s0.6-0.3,0.6-0.6
	C-197.5,424.8-197.8,424.5-198.1,424.5z"/>
<path id="path166" class="st1" d="M-190.1,425.1c0,0.6-0.5,1.1-1.1,1.1c-0.6,0-1.1-0.5-1.1-1.1c0-0.6,0.5-1.1,1.1-1.1
	C-190.6,424-190.1,424.5-190.1,425.1"/>
<path class="st1" d="M-191.3,426.8c-0.9,0-1.7-0.8-1.7-1.7c0-0.9,0.8-1.7,1.7-1.7s1.7,0.8,1.7,1.7
	C-189.6,426-190.3,426.8-191.3,426.8z M-191.3,424.5c-0.3,0-0.6,0.3-0.6,0.6c0,0.3,0.3,0.6,0.6,0.6s0.6-0.3,0.6-0.6
	C-190.7,424.8-190.9,424.5-191.3,424.5z"/>
<path d="M-194.7,430.8c-1.7,0-2.9-0.4-3.7-1.2c-0.2-0.2-0.2-0.6,0-0.8s0.6-0.2,0.8,0c0.6,0.6,1.5,0.8,3,0.8c0.3,0,0.5,0.2,0.5,0.5
	S-194.4,430.8-194.7,430.8z"/>
<path d="M-194.7,430.8c-0.3,0-0.5-0.2-0.5-0.5s0.2-0.5,0.5-0.5c1.4,0,2.4-0.3,3-0.8c0.2-0.2,0.6-0.2,0.8,0c0.2,0.2,0.2,0.6,0,0.8
	C-191.7,430.5-193,430.8-194.7,430.8z"/>
</svg>
