<?xml version="1.0" encoding="utf-8"?>
<!-- Generator: Adobe Illustrator 19.1.0, SVG Export Plug-In . SVG Version: 6.00 Build 0)  -->
<svg version="1.1"
	 id="svg2" xmlns:cc="http://creativecommons.org/ns#" xmlns:rdf="http://www.w3.org/1999/02/22-rdf-syntax-ns#" xmlns:dc="http://purl.org/dc/elements/1.1/"
	 xmlns="http://www.w3.org/2000/svg" xmlns:xlink="http://www.w3.org/1999/xlink" x="0px" y="0px" viewBox="-206 346.8 182.3 148.1"
	 style="enable-background:new -206 346.8 182.3 148.1;" xml:space="preserve">
<style type="text/css">
	.st0{fill:#55ACEE;}
</style>
<path id="path22" class="st0" d="M-25.5,365.2c-6.6,2.9-13.7,4.9-21.1,5.8c7.6-4.6,13.4-11.8,16.2-20.3c-7.1,4.2-15,7.3-23.3,8.9
	C-60.5,352.4-70,348-80.6,348c-20.3,0-36.8,16.5-36.8,36.8c0,2.9,0.3,5.7,1,8.4c-30.6-1.5-57.6-16.2-75.8-38.4
	c-3.2,5.4-5,11.7-5,18.5c0,12.8,6.5,24,16.4,30.6c-6-0.2-11.7-1.8-16.7-4.6c0,0.2,0,0.3,0,0.5c0,17.8,12.7,32.7,29.5,36
	c-3.1,0.8-6.3,1.3-9.7,1.3c-2.4,0-4.7-0.2-6.9-0.7c4.7,14.6,18.3,25.2,34.3,25.5c-12.6,9.9-28.4,15.7-45.7,15.7
	c-3,0-5.9-0.2-8.8-0.5c16.3,10.4,35.6,16.5,56.4,16.5c67.6,0,104.6-56,104.6-104.6c0-1.6,0-3.2-0.1-4.8
	C-36.7,379.1-30.4,372.6-25.5,365.2"/>
</svg>
