<?xml version="1.0" encoding="utf-8"?>
<!-- Generator: Adobe Illustrator 18.1.1, SVG Export Plug-In . SVG Version: 6.00 Build 0)  -->
<svg version="1.1"
	 id="svg2" xmlns:cc="http://creativecommons.org/ns#" xmlns:svg="http://www.w3.org/2000/svg" xmlns:inkscape="http://www.inkscape.org/namespaces/inkscape" xmlns:rdf="http://www.w3.org/1999/02/22-rdf-syntax-ns#" xmlns:dc="http://purl.org/dc/elements/1.1/"
	 xmlns="http://www.w3.org/2000/svg" xmlns:xlink="http://www.w3.org/1999/xlink" x="0px" y="0px"
	 viewBox="-176.7 206.1 217.7 245.5" enable-background="new -176.7 206.1 217.7 245.5" xml:space="preserve">
<path id="path32" inkscape:connector-curvature="0" fill="#83CD29" d="M-40.1,380c-39.4,0-47.6-18.1-47.6-33.2
	c0-1.4,1.2-2.6,2.6-2.6h11.6c1.3,0,2.4,0.9,2.6,2.2c1.8,11.8,7,17.8,30.8,17.8c18.9,0,27-4.3,27-14.3c0-5.8-2.3-10.1-31.7-13
	c-24.6-2.4-39.8-7.9-39.8-27.6c0-18.2,15.3-29,40.9-29c28.8,0,43.1,10,44.9,31.5c0.1,0.7-0.2,1.4-0.7,2c-0.5,0.5-1.2,0.8-1.9,0.8
	h-11.7c-1.2,0-2.3-0.9-2.5-2c-2.8-12.5-9.6-16.4-28.1-16.4c-20.7,0-23.1,7.2-23.1,12.6c0,6.5,2.8,8.4,30.8,12.1
	c27.6,3.7,40.8,8.8,40.8,28.3C4.8,368.8-11.6,380-40.1,380"/>
<path id="path30" inkscape:connector-curvature="0" fill="#83CD29" d="M-67.9,451.6c-3.3,0-6.6-0.9-9.4-2.5l-30-17.8
	c-4.5-2.5-2.3-3.4-0.8-3.9c6-2.1,7.2-2.6,13.6-6.2c0.7-0.4,1.5-0.2,2.2,0.2l23.1,13.7c0.8,0.5,2,0.5,2.8,0l90-51.9
	c0.8-0.5,1.4-1.4,1.4-2.4V276.9c0-1-0.5-2-1.4-2.5l-89.9-51.9c-0.8-0.5-1.9-0.5-2.8,0l-89.9,51.9c-0.9,0.5-1.4,1.5-1.4,2.5v103.8
	c0,1,0.6,1.9,1.4,2.4l24.6,14.2c13.4,6.7,21.6-1.2,21.6-9.1V285.7c0-1.4,1.2-2.6,2.6-2.6h11.4c1.4,0,2.6,1.1,2.6,2.6v102.5
	c0,17.8-9.7,28.1-26.6,28.1c-5.2,0-9.3,0-20.7-5.6l-23.6-13.6c-5.8-3.4-9.4-9.7-9.4-16.4V276.9c0-6.7,3.6-13,9.4-16.4l90-52
	c5.7-3.2,13.3-3.2,18.9,0l90,52c5.8,3.4,9.4,9.7,9.4,16.4v103.8c0,6.7-3.6,13-9.4,16.4l-90,51.9C-61.3,450.7-64.5,451.6-67.9,451.6"
	/>
</svg>
